<?xml version="1.0" encoding="utf-8"?>
<!-- Generator: Adobe Illustrator 26.3.1, SVG Export Plug-In . SVG Version: 6.00 Build 0)  -->
<svg version="1.1" id="Layer_1" xmlns="http://www.w3.org/2000/svg" xmlns:xlink="http://www.w3.org/1999/xlink" x="0px" y="0px"
	 viewBox="0 0 360 418.75" style="enable-background:new 0 0 360 418.75;" xml:space="preserve">
<style type="text/css">
	.st0{fill:none;stroke:#E2B3AE;stroke-width:5;stroke-miterlimit:10;}
	.st1{fill:#170F81;}
	.st2{fill:#2A4F83;}
</style>
<g>
	<g>
		<g>
			<defs>
				<rect id="SVGID_1_" x="-5.03" y="-6.99" width="375.67" height="521.42"/>
			</defs>
			<clipPath id="SVGID_00000026130914288324355460000016233480469056408738_">
				<use xlink:href="#SVGID_1_"  style="overflow:visible;"/>
			</clipPath>
		</g>
	</g>
</g>
<path class="st0" d="M131.32,145.1c0,0,12.92-43.72,12.92-63.79s-5.22-25.03-13.48-25.03s-11.84,7.15-11.84,25.25
	C118.94,96.64,128.98,135.59,131.32,145.1z"/>
<path class="st0" d="M103.56,170.19c0,0-43.72-12.92-63.79-12.92s-25.03,5.22-25.03,13.48c0,8.25,7.15,11.84,25.25,11.84
	C55.11,182.58,94.05,172.53,103.56,170.19z"/>
<path class="st0" d="M131.35,192.41c0,0-12.92,43.72-12.92,63.79s5.22,25.03,13.48,25.03c8.25,0,11.84-7.15,11.84-25.25
	C143.75,240.86,133.7,201.92,131.35,192.41z"/>
<path class="st0" d="M163.4,171.24c0,0,43.72,12.92,63.79,12.92s25.03-5.22,25.03-13.48c0-8.25-7.15-11.84-25.25-11.84
	C211.85,158.86,172.9,168.9,163.4,171.24z"/>
<path class="st0" d="M131.76,170.94c0,0-21.78-40.06-35.97-54.25s-21.38-14-27.22-8.17c-5.83,5.83-3.31,13.43,9.49,26.23
	C88.73,145.44,123.37,165.87,131.76,170.94z"/>
<path class="st0" d="M131.63,170.21c0,0-40.06,21.78-54.25,35.97s-14,21.38-8.17,27.22c5.83,5.83,13.43,3.31,26.23-9.49
	C106.13,213.24,126.56,178.6,131.63,170.21z"/>
<path class="st0" d="M130.91,170.05c0,0,21.78,40.06,35.97,54.25c14.2,14.19,21.38,14,27.22,8.17c5.83-5.83,3.31-13.43-9.49-26.23
	C173.94,195.55,139.3,175.12,130.91,170.05z"/>
<path class="st0" d="M131.03,170.77c0,0,40.06-21.78,54.25-35.97c14.19-14.2,14-21.38,8.17-27.22c-5.83-5.83-13.43-3.31-26.23,9.49
	C156.54,127.76,136.1,162.39,131.03,170.77z"/>
<path class="st1" d="M217.38,103.61c0,0-27.94-8.15-40.76-8.11s-15.96,3.39-15.95,8.66s4.59,7.54,16.15,7.5
	C186.47,111.63,211.31,105.13,217.38,103.61z"/>
<path class="st1" d="M230.74,123.09c0,0-8.15,27.94-8.1,40.76c0.05,12.82,3.39,15.96,8.66,15.94s7.54-4.59,7.5-16.15
	C238.77,154,232.26,129.16,230.74,123.09z"/>
<path class="st1" d="M244.06,104.29c0,0,27.97,8.05,40.79,7.96c12.82-0.09,15.95-3.45,15.91-8.72s-4.62-7.53-16.18-7.44
	C274.94,96.16,250.13,102.75,244.06,104.29z"/>
<path class="st1" d="M230.46,83.26c0,0,7.85-28.03,7.67-40.84s-3.56-15.93-8.83-15.85s-7.49,4.67-7.33,16.23
	C222.11,52.45,228.88,77.21,230.46,83.26z"/>
<path class="st2" d="M296.35,344.75c0,0-16.69-4.62-24.32-4.49c-7.63,0.14-9.46,2.15-9.42,5.28c0.06,3.13,2.79,4.45,9.67,4.33
	C278.03,349.78,292.75,345.7,296.35,344.75z"/>
<path class="st2" d="M296.12,344.59c0,0-4.62,16.69-4.49,24.32c0.14,7.63,2.15,9.46,5.28,9.42c3.13-0.06,4.45-2.79,4.33-9.67
	C301.14,362.91,297.07,348.19,296.12,344.59z"/>
<path class="st2" d="M295.88,344.75c0,0,16.69,4.62,24.32,4.49c7.63-0.14,9.46-2.15,9.42-5.28c-0.06-3.13-2.79-4.45-9.67-4.33
	C314.2,339.72,299.48,343.8,295.88,344.75z"/>
<path class="st2" d="M296.12,344.91c0,0,4.62-16.69,4.49-24.32c-0.14-7.63-2.15-9.46-5.28-9.42c-3.13,0.06-4.45,2.79-4.33,9.67
	C291.09,326.59,295.16,341.31,296.12,344.91z"/>
</svg>
